<?xml version="1.0" encoding="UTF-8" standalone="no" ?>
<!DOCTYPE svg PUBLIC "-//W3C//DTD SVG 1.1//EN" "http://www.w3.org/Graphics/SVG/1.1/DTD/svg11.dtd">
<svg xmlns="http://www.w3.org/2000/svg" xmlns:xlink="http://www.w3.org/1999/xlink" version="1.1" width="400" height="400" viewBox="0 0 400 400" xml:space="preserve">
<desc>Created with Fabric.js 3.6.2</desc>
<defs>
</defs>
<g transform="matrix(0.39 0 0 0.39 200 200)"  >
<path style="stroke: none; stroke-width: 1; stroke-dasharray: none; stroke-linecap: butt; stroke-dashoffset: 0; stroke-linejoin: round; stroke-miterlimit: 2; fill: rgb(0,0,0); fill-rule: evenodd; opacity: 1;"  transform=" translate(-256, -256)" d="M 255.022 511.998 l 0.229 0.001 l -0.079 0 l -0.15 -0.001 Z m 1.806 0.001 l -0.079 0 l 0.229 -0.001 l -0.15 0.001 Z m -2.588 -0.005 l 0.247 0.001 l -0.142 0 l -0.105 -0.001 Z m 3.415 0.001 l -0.142 0 l 0.247 -0.001 l -0.105 0.001 Z m -4.169 -0.007 l 0.165 0.001 l -0.132 -0.001 l -0.033 0 Z m 4.995 0 l -0.132 0.001 l 0.165 -0.001 l -0.033 0 Z m 0.826 -0.009 l -0.058 0.001 l 0.223 -0.003 l -0.165 0.002 Z m -6.779 -0.002 l 0.223 0.003 l -0.058 -0.001 l -0.165 -0.002 Z m 7.604 -0.01 l -0.135 0.002 l 0.275 -0.004 l -0.14 0.002 Z m -8.404 -0.002 l 0.275 0.004 l -0.135 -0.002 l -0.14 -0.002 Z m 9.228 -0.012 l -0.182 0.003 l 0.254 -0.005 l -0.072 0.002 Z m -9.984 -0.002 l 0.254 0.005 l -0.182 -0.003 l -0.072 -0.002 Z m -0.937 -0.019 l 0.225 0.005 l -0.04 -0.001 l -0.185 -0.004 Z m 11.745 0.004 l -0.04 0.001 l 0.225 -0.005 l -0.185 0.004 Z m -12.567 -0.025 l 0.309 0.008 l -0.125 -0.003 l -0.184 -0.005 Z m 13.39 0.005 l -0.125 0.003 l 0.309 -0.008 l -0.184 0.005 Z m 0.823 -0.022 l -0.201 0.006 l 0.316 -0.009 l -0.115 0.003 Z m -14.967 -0.003 l 0.316 0.009 l -0.201 -0.006 l -0.115 -0.003 Z m -0.72 -0.022 l 0.225 0.007 l -0.212 -0.007 l -0.194 -0.006 l 0.181 0.006 Z m 16.509 0 l -0.212 0.007 l 0.225 -0.007 l 0.181 -0.006 l -0.194 0.006 Z m 0.821 -0.027 l -0.112 0.004 l 0.345 -0.012 l -0.233 0.008 Z m -18.371 -0.008 l 0.345 0.012 l -0.112 -0.004 l -0.233 -0.008 Z m -0.749 -0.028 l 0.362 0.013 l -0.201 -0.007 l -0.161 -0.006 Z m 19.941 0.006 l -0.201 0.007 l 0.362 -0.013 l -0.161 0.006 Z m -20.676 -0.036 l 0.354 0.015 l -0.277 -0.011 l -0.077 -0.004 Z m 21.495 0.004 l -0.277 0.011 l 0.354 -0.015 l -0.077 0.004 Z m -22.525 -0.049 l 0.38 0.017 l -0.093 -0.003 l -0.287 -0.014 Z m 23.345 0.014 l -0.093 0.003 l 0.38 -0.017 l -0.287 0.014 Z m -24.084 -0.048 l 0.394 0.018 l -0.186 -0.008 l -0.208 -0.01 Z m 24.902 0.01 l -0.186 0.008 l 0.394 -0.018 l -0.208 0.01 Z m -25.63 -0.047 l 0.397 0.02 l -0.279 -0.013 l -0.118 -0.007 Z m 26.448 0.007 l -0.279 0.013 l 0.397 -0.02 l -0.118 0.007 Z m 0.818 -0.043 l -0.362 0.019 l 0.321 -0.017 l 0.378 -0.021 l -0.337 0.019 Z m -27.925 0.002 l 0.321 0.017 l -0.362 -0.019 l -0.337 -0.019 l 0.378 0.021 Z m 28.741 -0.048 l -0.16 0.009 l 0.406 -0.023 l -0.246 0.014 Z m -29.844 -0.014 l 0.406 0.023 l -0.16 -0.009 l -0.246 -0.014 Z m -0.722 -0.043 l 0.405 0.024 l -0.253 -0.014 l -0.152 -0.01 Z m 31.382 0.01 l -0.253 0.014 l 0.405 -0.024 l -0.152 0.01 Z m -32.071 -0.053 l 0.365 0.023 l -0.34 -0.021 l -0.342 -0.022 l 0.317 0.02 Z m 32.887 0.002 l -0.34 0.021 l 0.365 -0.023 l 0.317 -0.02 l -0.342 0.022 Z m 0.814 -0.053 l -0.122 0.008 l 0.387 -0.026 l -0.265 0.018 Z m -34.755 -0.018 l 0.387 0.026 l -0.122 -0.008 l -0.265 -0.018 Z m -0.721 -0.05 l 0.38 0.027 l -0.208 -0.014 l -0.172 -0.013 Z m 36.29 0.013 l -0.208 0.014 l 0.38 -0.027 l -0.172 0.013 Z m -37.009 -0.064 l 0.349 0.025 l -0.271 -0.019 l -0.078 -0.006 Z m 37.822 0.006 l -0.271 0.019 l 0.349 -0.025 l -0.078 0.006 Z m -38.789 -0.079 l 0.306 0.023 l -0.074 -0.005 l -0.232 -0.018 Z m 39.602 0.018 l -0.074 0.005 l 0.306 -0.023 l -0.232 0.018 Z m 0.811 -0.063 l -0.146 0.011 l 0.311 -0.025 l -0.165 0.014 Z m -41.157 -0.014 l 0.311 0.025 l -0.146 -0.011 l -0.165 -0.014 Z m -0.725 -0.059 l 0.264 0.022 l -0.186 -0.015 l -0.078 -0.007 Z m 42.694 0.007 l -0.186 0.015 l 0.264 -0.022 l -0.078 0.007 Z m -43.492 -0.074 l 0.079 0.007 l -0.013 -0.001 l -0.066 -0.006 Z m 44.302 0.006 l -0.013 0.001 l 0.079 -0.007 l -0.066 0.006 Z m 0.81 -0.071 l -0.072 0.006 l 0.181 -0.016 l -0.109 0.01 Z m -45.965 -0.01 l 0.181 0.016 l -0.072 -0.006 l -0.109 -0.01 Z m -0.75 -0.068 l 0.135 0.013 l -0.084 -0.008 l -0.051 -0.005 Z m 47.523 0.005 l -0.084 0.008 l 0.135 -0.013 l -0.051 0.005 Z m -63.736 -2.025 c -122.319 -19.226 -216 -125.203 -216 -252.887 c 0 -141.29 114.71 -256 256 -256 c 141.29 0 256 114.71 256 256 c 0 127.684 -93.681 233.661 -216 252.887 l 0 -178.887 l 59.65 0 l 11.35 -74 l -71 0 l 0 -48.021 c 0 -20.245 9.918 -39.979 41.719 -39.979 l 32.281 0 l 0 -63 c 0 0 -29.296 -5 -57.305 -5 c -58.476 0 -96.695 35.44 -96.695 99.6 l 0 56.4 l -65 0 l 0 74 l 65 0 l 0 178.887 Z" stroke-linecap="round" />
</g>
</svg>